C:\Users\Nicos\Documents\OpenSimProjects\SprintingProject\Study1\PredictiveResults\IC_pred_Sprinting_optimum_28-October-2023__16-43-06_p02_maxVel_01___IKTD_Plus_4_GRF.mot
version=1
nRows=4
nColumns=127
inDegrees=yes
endheader
time	ground_force_vx	ground_force_vy	ground_force_vz	ground_force_px	ground_force_py	ground_force_pz	ground_torque_x	ground_torque_y	ground_torque_z	1_ground_force_vx	1_ground_force_vy	1_ground_force_vz	1_ground_force_px	1_ground_force_py	1_ground_force_pz	1_ground_torque_x	1_ground_torque_y	1_ground_torque_z	2_ground_force_vx	2_ground_force_vy	2_ground_force_vz	2_ground_force_px	2_ground_force_py	2_ground_force_pz	2_ground_torque_x	2_ground_torque_y	2_ground_torque_z	3_ground_force_vx	3_ground_force_vy	3_ground_force_vz	3_ground_force_px	3_ground_force_py	3_ground_force_pz	3_ground_torque_x	3_ground_torque_y	3_ground_torque_z	4_ground_force_vx	4_ground_force_vy	4_ground_force_vz	4_ground_force_px	4_ground_force_py	4_ground_force_pz	4_ground_torque_x	4_ground_torque_y	4_ground_torque_z	5_ground_force_vx	5_ground_force_vy	5_ground_force_vz	5_ground_force_px	5_ground_force_py	5_ground_force_pz	5_ground_torque_x	5_ground_torque_y	5_ground_torque_z	6_ground_force_vx	6_ground_force_vy	6_ground_force_vz	6_ground_force_px	6_ground_force_py	6_ground_force_pz	6_ground_torque_x	6_ground_torque_y	6_ground_torque_z	7_ground_force_vx	7_ground_force_vy	7_ground_force_vz	7_ground_force_px	7_ground_force_py	7_ground_force_pz	7_ground_torque_x	7_ground_torque_y	7_ground_torque_z	8_ground_force_vx	8_ground_force_vy	8_ground_force_vz	8_ground_force_px	8_ground_force_py	8_ground_force_pz	8_ground_torque_x	8_ground_torque_y	8_ground_torque_z	9_ground_force_vx	9_ground_force_vy	9_ground_force_vz	9_ground_force_px	9_ground_force_py	9_ground_force_pz	9_ground_torque_x	9_ground_torque_y	9_ground_torque_z	10_ground_force_vx	10_ground_force_vy	10_ground_force_vz	10_ground_force_px	10_ground_force_py	10_ground_force_pz	10_ground_torque_x	10_ground_torque_y	10_ground_torque_z	11_ground_force_vx	11_ground_force_vy	11_ground_force_vz	11_ground_force_px	11_ground_force_py	11_ground_force_pz	11_ground_torque_x	11_ground_torque_y	11_ground_torque_z	12_ground_force_vx	12_ground_force_vy	12_ground_force_vz	12_ground_force_px	12_ground_force_py	12_ground_force_pz	12_ground_torque_x	12_ground_torque_y	12_ground_torque_z	13_ground_force_vx	13_ground_force_vy	13_ground_force_vz	13_ground_force_px	13_ground_force_py	13_ground_force_pz	13_ground_torque_x	13_ground_torque_y	13_ground_torque_z
0.160296	-0.000000	0.000000	0.000000	0.503746	0.078402	0.398233	0.000000	0.000000	0.000000	-0.000000	0.000000	0.000000	0.512492	0.100674	0.418398	0.000000	0.000000	0.000000	-0.000000	0.000000	0.000000	0.521964	0.112495	0.415076	0.000000	0.000000	0.000000	-0.000000	0.000000	0.000000	0.520399	0.110365	0.392808	0.000000	0.000000	0.000000	-0.000000	0.000000	0.000000	0.533605	0.155718	0.443647	0.000000	0.000000	0.000000	-0.000000	0.000000	0.000000	0.525167	0.127122	0.409255	0.000000	0.000000	0.000000	-0.000000	0.000000	0.000000	0.537979	0.185632	0.385970	0.000000	0.000000	0.000000	-0.000000	0.000000	-0.000000	1.499806	0.117427	0.136628	0.000000	0.000000	0.000000	-0.000000	0.000000	-0.000000	1.465964	0.132306	0.115736	0.000000	0.000000	0.000000	-0.000000	0.000000	-0.000000	1.433761	0.137923	0.123976	0.000000	0.000000	0.000000	-0.000000	0.000000	-0.000000	1.431493	0.132566	0.143890	0.000000	0.000000	0.000000	-0.000000	0.000000	-0.000000	1.369418	0.167856	0.097502	0.000000	0.000000	0.000000	-0.000000	0.000000	-0.000000	1.407948	0.145170	0.128835	0.000000	0.000000	0.000000	-0.000000	0.000000	-0.000000	1.304697	0.174160	0.148270	0.000000	0.000000	0.000000
0.160943	-0.000000	0.000000	0.000000	0.508320	0.080612	0.397719	0.000000	0.000000	0.000000	-0.000000	0.000000	0.000000	0.517414	0.102816	0.418028	0.000000	0.000000	0.000000	-0.000000	0.000000	0.000000	0.527076	0.114621	0.414748	0.000000	0.000000	0.000000	-0.000000	0.000000	0.000000	0.525505	0.112532	0.392464	0.000000	0.000000	0.000000	-0.000000	0.000000	0.000000	0.539463	0.157747	0.443591	0.000000	0.000000	0.000000	-0.000000	0.000000	0.000000	0.530554	0.129242	0.409018	0.000000	0.000000	0.000000	-0.000000	0.000000	0.000000	0.544469	0.187725	0.386099	0.000000	0.000000	0.000000	-0.000000	0.000000	-0.000000	1.513929	0.116595	0.137198	0.000000	0.000000	0.000000	-0.000000	0.000000	-0.000000	1.479816	0.131302	0.116262	0.000000	0.000000	0.000000	-0.000000	0.000000	-0.000000	1.447513	0.136780	0.124488	0.000000	0.000000	0.000000	-0.000000	0.000000	-0.000000	1.445345	0.131429	0.144420	0.000000	0.000000	0.000000	-0.000000	0.000000	-0.000000	1.382627	0.166398	0.097925	0.000000	0.000000	0.000000	-0.000000	0.000000	-0.000000	1.421570	0.143914	0.129327	0.000000	0.000000	0.000000	-0.000000	0.000000	-0.000000	1.317801	0.172450	0.148681	0.000000	0.000000	0.000000
0.162987	-0.000000	0.000000	0.000000	0.523280	0.087596	0.396144	0.000000	0.000000	0.000000	-0.000000	0.000000	0.000000	0.533423	0.109585	0.416888	0.000000	0.000000	0.000000	-0.000000	0.000000	0.000000	0.543664	0.121336	0.413739	0.000000	0.000000	0.000000	-0.000000	0.000000	0.000000	0.542084	0.119368	0.391412	0.000000	0.000000	0.000000	-0.000000	0.000000	0.000000	0.558311	0.164142	0.443416	0.000000	0.000000	0.000000	-0.000000	0.000000	0.000000	0.547983	0.135927	0.408289	0.000000	0.000000	0.000000	-0.000000	0.000000	0.000000	0.565260	0.194293	0.386491	0.000000	0.000000	0.000000	-0.000000	0.000000	-0.000000	1.558479	0.114064	0.139002	0.000000	0.000000	0.000000	-0.000000	0.000000	-0.000000	1.523536	0.128225	0.117930	0.000000	0.000000	0.000000	-0.000000	0.000000	-0.000000	1.490938	0.133263	0.126116	0.000000	0.000000	0.000000	-0.000000	0.000000	-0.000000	1.489082	0.127937	0.146105	0.000000	0.000000	0.000000	-0.000000	0.000000	-0.000000	1.424384	0.161877	0.099275	0.000000	0.000000	0.000000	-0.000000	0.000000	-0.000000	1.464602	0.140039	0.130893	0.000000	0.000000	0.000000	-0.000000	0.000000	-0.000000	1.359260	0.167140	0.150002	0.000000	0.000000	0.000000
0.164468	-0.000000	0.000000	0.000000	0.534615	0.092645	0.395121	0.000000	0.000000	0.000000	-0.000000	0.000000	0.000000	0.545479	0.114480	0.416149	0.000000	0.000000	0.000000	-0.000000	0.000000	0.000000	0.556119	0.126188	0.413084	0.000000	0.000000	0.000000	-0.000000	0.000000	0.000000	0.554531	0.124300	0.390730	0.000000	0.000000	0.000000	-0.000000	0.000000	0.000000	0.572315	0.168759	0.443306	0.000000	0.000000	0.000000	-0.000000	0.000000	0.000000	0.561014	0.140750	0.407819	0.000000	0.000000	0.000000	-0.000000	0.000000	0.000000	0.580593	0.199002	0.386757	0.000000	0.000000	0.000000	-0.000000	0.000000	-0.000000	1.590667	0.112328	0.140313	0.000000	0.000000	0.000000	-0.000000	0.000000	-0.000000	1.555147	0.126089	0.119144	0.000000	0.000000	0.000000	-0.000000	0.000000	-0.000000	1.522353	0.130810	0.127303	0.000000	0.000000	0.000000	-0.000000	0.000000	-0.000000	1.520721	0.125505	0.147334	0.000000	0.000000	0.000000	-0.000000	0.000000	-0.000000	1.454639	0.158688	0.100266	0.000000	0.000000	0.000000	-0.000000	0.000000	-0.000000	1.495748	0.137325	0.132038	0.000000	0.000000	0.000000	-0.000000	0.000000	-0.000000	1.389330	0.163385	0.150977	0.000000	0.000000	0.000000
